<mxfile host="Electron" modified="2024-05-13T19:36:04.914Z" agent="Mozilla/5.0 (Windows NT 10.0; Win64; x64) AppleWebKit/537.36 (KHTML, like Gecko) draw.io/24.1.0 Chrome/120.0.6099.109 Electron/28.1.0 Safari/537.36" etag="kpajWqQGoTpaET6mvqMn" version="24.1.0" type="device">
  <diagram name="Страница — 1" id="0tK4nrL7wCCsGlgBR3Ds">
    <mxGraphModel dx="1434" dy="836" grid="1" gridSize="10" guides="1" tooltips="1" connect="1" arrows="1" fold="1" page="1" pageScale="1" pageWidth="827" pageHeight="1169" math="0" shadow="0">
      <root>
        <mxCell id="0" />
        <mxCell id="1" parent="0" />
        <mxCell id="2WR2_PuhFn0Ntzq1gt7V-1" value="Hurt" style="rounded=1;whiteSpace=wrap;html=1;fillColor=#dae8fc;strokeColor=#6c8ebf;fontSize=14;" vertex="1" parent="1">
          <mxGeometry x="360" y="430" width="120" height="60" as="geometry" />
        </mxCell>
        <mxCell id="2WR2_PuhFn0Ntzq1gt7V-18" style="edgeStyle=none;rounded=0;orthogonalLoop=1;jettySize=auto;html=1;startArrow=open;startFill=0;endArrow=open;endFill=0;strokeWidth=1;" edge="1" parent="1" source="2WR2_PuhFn0Ntzq1gt7V-2" target="2WR2_PuhFn0Ntzq1gt7V-6">
          <mxGeometry relative="1" as="geometry" />
        </mxCell>
        <mxCell id="2WR2_PuhFn0Ntzq1gt7V-22" style="edgeStyle=none;rounded=0;orthogonalLoop=1;jettySize=auto;html=1;startArrow=open;startFill=0;endArrow=open;endFill=0;strokeWidth=1;" edge="1" parent="1" source="2WR2_PuhFn0Ntzq1gt7V-2" target="2WR2_PuhFn0Ntzq1gt7V-5">
          <mxGeometry relative="1" as="geometry" />
        </mxCell>
        <mxCell id="2WR2_PuhFn0Ntzq1gt7V-2" value="Run" style="rounded=1;whiteSpace=wrap;html=1;fillColor=#dae8fc;strokeColor=#6c8ebf;fontSize=14;" vertex="1" parent="1">
          <mxGeometry x="510" y="560" width="120" height="60" as="geometry" />
        </mxCell>
        <mxCell id="2WR2_PuhFn0Ntzq1gt7V-13" style="edgeStyle=none;rounded=0;orthogonalLoop=1;jettySize=auto;html=1;startArrow=open;startFill=0;endArrow=open;endFill=0;strokeWidth=1;" edge="1" parent="1" source="2WR2_PuhFn0Ntzq1gt7V-3" target="2WR2_PuhFn0Ntzq1gt7V-2">
          <mxGeometry relative="1" as="geometry" />
        </mxCell>
        <mxCell id="2WR2_PuhFn0Ntzq1gt7V-19" style="edgeStyle=none;rounded=0;orthogonalLoop=1;jettySize=auto;html=1;startArrow=open;startFill=0;endArrow=open;endFill=0;strokeWidth=1;" edge="1" parent="1" source="2WR2_PuhFn0Ntzq1gt7V-3" target="2WR2_PuhFn0Ntzq1gt7V-6">
          <mxGeometry relative="1" as="geometry" />
        </mxCell>
        <mxCell id="2WR2_PuhFn0Ntzq1gt7V-21" style="edgeStyle=none;rounded=0;orthogonalLoop=1;jettySize=auto;html=1;startArrow=open;startFill=0;endArrow=open;endFill=0;strokeWidth=1;" edge="1" parent="1" source="2WR2_PuhFn0Ntzq1gt7V-3" target="2WR2_PuhFn0Ntzq1gt7V-4">
          <mxGeometry relative="1" as="geometry" />
        </mxCell>
        <mxCell id="2WR2_PuhFn0Ntzq1gt7V-3" value="Idle" style="rounded=1;whiteSpace=wrap;html=1;fillColor=#dae8fc;strokeColor=#6c8ebf;fontSize=14;" vertex="1" parent="1">
          <mxGeometry x="210" y="560" width="120" height="60" as="geometry" />
        </mxCell>
        <mxCell id="2WR2_PuhFn0Ntzq1gt7V-7" style="edgeStyle=none;rounded=0;orthogonalLoop=1;jettySize=auto;html=1;startArrow=open;startFill=0;endArrow=open;endFill=0;strokeWidth=1;" edge="1" parent="1" source="2WR2_PuhFn0Ntzq1gt7V-4" target="2WR2_PuhFn0Ntzq1gt7V-2">
          <mxGeometry relative="1" as="geometry" />
        </mxCell>
        <mxCell id="2WR2_PuhFn0Ntzq1gt7V-8" style="edgeStyle=none;rounded=0;orthogonalLoop=1;jettySize=auto;html=1;startArrow=open;startFill=0;endArrow=open;endFill=0;strokeWidth=1;" edge="1" parent="1" source="2WR2_PuhFn0Ntzq1gt7V-4" target="2WR2_PuhFn0Ntzq1gt7V-6">
          <mxGeometry relative="1" as="geometry" />
        </mxCell>
        <mxCell id="2WR2_PuhFn0Ntzq1gt7V-4" value="&lt;font style=&quot;font-size: 14px;&quot;&gt;Attack&lt;/font&gt;" style="rounded=1;whiteSpace=wrap;html=1;fillColor=#dae8fc;strokeColor=#6c8ebf;" vertex="1" parent="1">
          <mxGeometry x="610" y="390" width="120" height="60" as="geometry" />
        </mxCell>
        <mxCell id="2WR2_PuhFn0Ntzq1gt7V-12" style="edgeStyle=none;rounded=0;orthogonalLoop=1;jettySize=auto;html=1;startArrow=open;startFill=0;endArrow=open;endFill=0;strokeWidth=1;" edge="1" parent="1" source="2WR2_PuhFn0Ntzq1gt7V-5" target="2WR2_PuhFn0Ntzq1gt7V-3">
          <mxGeometry relative="1" as="geometry" />
        </mxCell>
        <mxCell id="2WR2_PuhFn0Ntzq1gt7V-20" style="edgeStyle=none;rounded=0;orthogonalLoop=1;jettySize=auto;html=1;startArrow=open;startFill=0;endArrow=open;endFill=0;strokeWidth=1;" edge="1" parent="1" source="2WR2_PuhFn0Ntzq1gt7V-5" target="2WR2_PuhFn0Ntzq1gt7V-4">
          <mxGeometry relative="1" as="geometry" />
        </mxCell>
        <mxCell id="2WR2_PuhFn0Ntzq1gt7V-5" value="Jump" style="rounded=1;whiteSpace=wrap;html=1;fillColor=#dae8fc;strokeColor=#6c8ebf;fontSize=14;" vertex="1" parent="1">
          <mxGeometry x="110" y="390" width="120" height="60" as="geometry" />
        </mxCell>
        <mxCell id="2WR2_PuhFn0Ntzq1gt7V-11" style="edgeStyle=none;rounded=0;orthogonalLoop=1;jettySize=auto;html=1;startArrow=open;startFill=0;endArrow=open;endFill=0;strokeWidth=1;" edge="1" parent="1" source="2WR2_PuhFn0Ntzq1gt7V-6" target="2WR2_PuhFn0Ntzq1gt7V-5">
          <mxGeometry relative="1" as="geometry" />
        </mxCell>
        <mxCell id="2WR2_PuhFn0Ntzq1gt7V-6" value="&lt;font style=&quot;font-size: 14px;&quot;&gt;Hurt&lt;/font&gt;" style="rounded=1;whiteSpace=wrap;html=1;fillColor=#dae8fc;strokeColor=#6c8ebf;" vertex="1" parent="1">
          <mxGeometry x="360" y="260" width="120" height="60" as="geometry" />
        </mxCell>
        <mxCell id="2WR2_PuhFn0Ntzq1gt7V-17" value="" style="edgeStyle=none;rounded=0;orthogonalLoop=1;jettySize=auto;html=1;startArrow=none;startFill=0;endArrow=open;endFill=0;strokeWidth=1;" edge="1" parent="1" source="2WR2_PuhFn0Ntzq1gt7V-6" target="2WR2_PuhFn0Ntzq1gt7V-1">
          <mxGeometry relative="1" as="geometry">
            <mxPoint x="420" y="300" as="sourcePoint" />
            <mxPoint x="420" y="430" as="targetPoint" />
          </mxGeometry>
        </mxCell>
      </root>
    </mxGraphModel>
  </diagram>
</mxfile>
